<svg xmlns="http://www.w3.org/2000/svg" viewBox="0 0 240 300"><style>.s{fill:#f6c27e;stroke:#111;stroke-width:3;stroke-linecap:round;stroke-linejoin:round}.l{fill:none;stroke:#111;stroke-width:2.3;stroke-linecap:round}.p{fill:#1d1d1d;stroke:#111;stroke-width:3}</style><ellipse cx="120" cy="282" rx="56" ry="9" fill="rgba(0,0,0,.10)"/><path class="s" d="M84 219C80 241 80 265 84 272C93 279 113 277 117 270L112 219Z"/><path class="s" d="M128 219L123 270C127 277 147 279 156 272C160 265 160 241 154 219Z"/><path class="s" d="M83 267C69 272 68 286 86 288L116 286C121 278 113 269 99 268Z"/><path class="s" d="M157 267C171 272 172 286 154 288L124 286C119 278 127 269 141 268Z"/><path class="s" d="M72 142C67 169 68 213 79 232L161 232C172 213 173 169 168 142C158 122 139 114 120 114C101 114 82 122 72 142Z"/><path class="p" d="M77 208L163 208L160 236L123 236L120 221L117 236L80 236Z"/><path class="l" d="M73 154C65 176 63 198 68 211"/><circle class="s" cx="67" cy="212" r="18"/><path class="l" d="M167 154C175 176 177 198 172 211"/><circle class="s" cx="173" cy="212" r="18"/><circle class="s" cx="120" cy="76" r="68"/><ellipse class="s" cx="51" cy="84" rx="16" ry="22"/><ellipse class="s" cx="189" cy="84" rx="16" ry="22"/><path class="l" d="M48 85C56 78 60 91 52 96"/><path class="l" d="M192 85C184 78 180 91 188 96"/></svg>